<?xml version="1.0" encoding="UTF-8"?>
<level>
  <owner>Fistachka</owner>
  <repo>tonic-harmonic-1</repo>
  <version>v1.0.5</version>
  <next number="1" owner="stolbitsa" repo="tonic"/>
  <readme>
    <ru>e544700394203e3c577a50e91cc927f5d0cca6768852ea6420c576560498b7a3</ru>
    <en>bea4cf27b97ca127467d77dbd28250269f69306202ec1697e29ecc8b0da274ba</en>
  </readme>
  <license>b1b99f5538d1fd3702219bff50c665196dfa42f6ee755c37fe41a6178d6bc6e5</license>
  <exercise number="1">
    <scale>major</scale>
    <bpm>80</bpm>
    <lowestNote>1</lowestNote>
    <tonalities>1,2,3,4,5,6,7,8,9,10,11,12</tonalities>
    <video name="o3.mp4" size="702386" type="video/mp4">c761d2bd8d8ae750516d2682461c5d6f68c77d0d59eb27deb5f0d2a05d51a802</video>
    <notes>
      <note number="1" values="18" ticks="0" durationTicks="187" ppq="96" velocity="0.843"/>
      <note number="2" values="18" ticks="0" durationTicks="91" ppq="96" velocity="0.913"/>
    </notes>
  </exercise>
  <exercise number="2">
    <scale>major</scale>
    <bpm>80</bpm>
    <lowestNote>1</lowestNote>
    <tonalities>1,2,3,4,5,6,7,8,9,10,11,12</tonalities>
    <notes>
      <note number="1" values="18" ticks="0" durationTicks="187" ppq="96" velocity="0.843"/>
      <note number="2" values="1" ticks="0" durationTicks="91" ppq="96" velocity="0.913"/>
    </notes>
  </exercise>
  <exercise number="3">
    <scale>major</scale>
    <bpm>80</bpm>
    <lowestNote>1</lowestNote>
    <tonalities>1,2,3,4,5,6,7,8,9,10,11,12</tonalities>
    <video name="o6.mp4" size="693725" type="video/mp4">04c647a7b2f04817f32d90656512a3072d0b139fc1c55469af4374bd4e87a7c4</video>
    <notes>
      <note number="1" values="18" ticks="0" durationTicks="187" ppq="96" velocity="0.843"/>
      <note number="2" values="18" ticks="0" durationTicks="91" ppq="96" velocity="0.913"/>
    </notes>
  </exercise>
  <exercise number="4">
    <scale>major</scale>
    <bpm>80</bpm>
    <lowestNote>1</lowestNote>
    <tonalities>1,2,3,4,5,6,7,8,9,10,11,12</tonalities>
    <notes>
      <note number="1" values="18" ticks="0" durationTicks="187" ppq="96" velocity="0.843"/>
      <note number="2" values="18" ticks="0" durationTicks="91" ppq="96" velocity="0.913"/>
    </notes>
  </exercise>
  <exercise number="5">
    <scale>major</scale>
    <bpm>80</bpm>
    <lowestNote>1</lowestNote>
    <tonalities>1,2,3,4,5,6,7,8,9,10,11,12</tonalities>
    <video name="o8.mp4" size="639865" type="video/mp4">7fa00c1b8f44693e30eb087d623cd779f755cc833d27ff354328364f66d368af</video>
    <notes>
      <note number="1" values="1" ticks="0" durationTicks="187" ppq="96" velocity="0.843"/>
      <note number="2" values="1" ticks="0" durationTicks="91" ppq="96" velocity="0.913"/>
      <note number="3" values="18" ticks="191" durationTicks="95" ppq="96" velocity="0.913"/>
      <note number="4" values="18" ticks="191" durationTicks="192" ppq="96" velocity="0.913"/>
    </notes>
  </exercise>
  <exercise number="6">
    <scale>major</scale>
    <bpm>80</bpm>
    <lowestNote>1</lowestNote>
    <tonalities>1,2,3,4,5,6,7,8,9,10,11,12</tonalities>
    <notes>
      <note number="1" values="18" ticks="0" durationTicks="187" ppq="96" velocity="0.843"/>
      <note number="2" values="18" ticks="0" durationTicks="91" ppq="96" velocity="0.913"/>
      <note number="3" values="1" ticks="191" durationTicks="95" ppq="96" velocity="0.913"/>
      <note number="4" values="1" ticks="191" durationTicks="192" ppq="96" velocity="0.913"/>
    </notes>
  </exercise>
  <exercise number="7">
    <scale>major</scale>
    <bpm>80</bpm>
    <lowestNote>1</lowestNote>
    <tonalities>1,2,3,4,5,6,7,8,9,10,11,12</tonalities>
    <video name="o12.mp4" size="1191977" type="video/mp4">3e4404ea532890be454c36bec13410f19f69e6a7ae79fcf7e03bd465d521b0b8</video>
    <notes>
      <note number="1" values="1" ticks="0" durationTicks="187" ppq="96" velocity="0.843"/>
      <note number="2" values="18" ticks="0" durationTicks="91" ppq="96" velocity="0.913"/>
      <note number="3" values="18" ticks="191" durationTicks="95" ppq="96" velocity="0.913"/>
      <note number="4" values="1" ticks="191" durationTicks="192" ppq="96" velocity="0.913"/>
    </notes>
  </exercise>
  <exercise number="8">
    <scale>major</scale>
    <bpm>80</bpm>
    <lowestNote>1</lowestNote>
    <tonalities>1,2,3,4,5,6,7,8,9,10,11,12</tonalities>
    <notes>
      <note number="1" values="18" ticks="0" durationTicks="187" ppq="96" velocity="0.843"/>
      <note number="2" values="1" ticks="0" durationTicks="91" ppq="96" velocity="0.913"/>
      <note number="3" values="1" ticks="191" durationTicks="95" ppq="96" velocity="0.913"/>
      <note number="4" values="1" ticks="191" durationTicks="192" ppq="96" velocity="0.913"/>
    </notes>
  </exercise>
  <exercise number="9">
    <scale>major</scale>
    <bpm>80</bpm>
    <lowestNote>1</lowestNote>
    <tonalities>1,2,3,4,5,6,7,8,9,10,11,12</tonalities>
    <video name="o13.mp4" size="1265851" type="video/mp4">d6d165940b7b1189b7715392768537b19621eaada11250961dbd1ed3c4e0f0b5</video>
    <notes>
      <note number="1" values="18" ticks="0" durationTicks="187" ppq="96" velocity="0.843"/>
      <note number="2" values="1" ticks="0" durationTicks="91" ppq="96" velocity="0.913"/>
      <note number="3" values="1" ticks="191" durationTicks="95" ppq="96" velocity="0.913"/>
      <note number="4" values="1" ticks="191" durationTicks="192" ppq="96" velocity="0.913"/>
    </notes>
  </exercise>
  <exercise number="10">
    <scale>major</scale>
    <bpm>80</bpm>
    <lowestNote>1</lowestNote>
    <tonalities>1,2,3,4,5,6,7,8,9,10,11,12</tonalities>
    <notes>
      <note number="1" values="18" ticks="0" durationTicks="187" ppq="96" velocity="0.843"/>
      <note number="2" values="18" ticks="0" durationTicks="91" ppq="96" velocity="0.913"/>
      <note number="3" values="1" ticks="191" durationTicks="95" ppq="96" velocity="0.913"/>
      <note number="4" values="1" ticks="191" durationTicks="192" ppq="96" velocity="0.913"/>
    </notes>
  </exercise>
  <exercise number="11">
    <scale>major</scale>
    <bpm>80</bpm>
    <lowestNote>1</lowestNote>
    <tonalities>1,2,3,4,5,6,7,8,9,10,11,12</tonalities>
    <video name="o14.mp4" size="1275277" type="video/mp4">bf52bf584d58a87605f59b5316488ec4e7bafe276751b9de037a454e3c79147d</video>
    <notes>
      <note number="1" values="18" ticks="0" durationTicks="187" ppq="96" velocity="0.843"/>
      <note number="2" values="1" ticks="0" durationTicks="91" ppq="96" velocity="0.913"/>
      <note number="3" values="1" ticks="191" durationTicks="95" ppq="96" velocity="0.913"/>
      <note number="4" values="1" ticks="191" durationTicks="192" ppq="96" velocity="0.913"/>
    </notes>
  </exercise>
  <exercise number="12">
    <scale>major</scale>
    <bpm>80</bpm>
    <lowestNote>1</lowestNote>
    <tonalities>1,2,3,4,5,6,7,8,9,10,11,12</tonalities>
    <notes>
      <note number="1" values="18" ticks="0" durationTicks="187" ppq="96" velocity="0.843"/>
      <note number="2" values="1" ticks="0" durationTicks="91" ppq="96" velocity="0.913"/>
      <note number="3" values="18" ticks="191" durationTicks="95" ppq="96" velocity="0.913"/>
      <note number="4" values="18" ticks="191" durationTicks="192" ppq="96" velocity="0.913"/>
    </notes>
  </exercise>
</level>
